<svg id="Layer_1" data-name="Layer 1" xmlns="http://www.w3.org/2000/svg" viewBox="0 0 425.2 566.93"><defs><style>.cls-1{fill:#fff;}</style></defs><title>Artboard 1</title><path class="cls-1" d="M-13.68,624.05V-56.59H440.4V624.05ZM222.78,186.46l-.48.53c-2.9-.77-5.86-1.37-8.69-2.35a92.48,92.48,0,0,0-16-3.87,3.78,3.78,0,0,0-1.65,0c-.62.2-1.54.59-1.63,1a2.53,2.53,0,0,0,.66,2.08,7.3,7.3,0,0,0,2.77,1.31c1.92.53,3.89.83,5.82,1.33,5.94,1.52,11.87,3.11,17.81,4.63,3.28.84,4.81,2.74,4.79,6.09q-.1,21-.19,42-.16,47.4-.27,94.8c0,1.89-.51,3.13-2.33,4a9.68,9.68,0,0,0-5.21,6,24.2,24.2,0,0,0-1.35,6.78c-.2,15.28-.21,30.56,1.44,45.79.62,5.73,1.4,11.45,3.37,16.91a31.28,31.28,0,0,0,2.63,5.36,5,5,0,0,0,3.82,2.64c3.57.37,6.77-.45,8.86-3.57a24.12,24.12,0,0,0,2.71-5.57,39.78,39.78,0,0,0,2-12.27c.19-12.08.4-24.15.32-36.23a117.25,117.25,0,0,0-1.29-14.56,30,30,0,0,0-2-7.12,7.69,7.69,0,0,0-2.7-3.54,5,5,0,0,1-2.46-4.76c-.06-14.72-.26-29.44-.32-44.16q-.17-43.8-.24-87.6c0-1.6-.13-3.21,0-4.8a4,4,0,0,1,1-2.28c2.26-2.34,4.89-4,8.32-4.07a26.35,26.35,0,0,0,4-.61c5.65-1,11.3-2,16.93-3a13.71,13.71,0,0,0,3.38-1.09,2.07,2.07,0,0,0,1-2.68c-.31-1.07-1.18-1.18-2.11-1.13a11.13,11.13,0,0,0-1.19.07q-11.9,2-23.8,3.92a18.24,18.24,0,0,1-2.35,0c.83-1,1.29-1.75,1.87-2.33,1.35-1.35,2.78-2.64,4.16-4q4.93-4.73,9.85-9.47c2.7-2.61,5.41-5.21,8.07-7.87a2.23,2.23,0,0,0,.42-3,2.76,2.76,0,0,0-3.48-.49,16.43,16.43,0,0,0-2.79,2.25c-6.71,6.75-13.38,13.53-20.09,20.27a5.46,5.46,0,0,1-1.58.77,5.27,5.27,0,0,1-.67-1.67q-.24-9.35-.37-18.71c-.05-3.76,0-7.52-.06-11.28a6.28,6.28,0,0,0-1.12-4.08,3.24,3.24,0,0,0-3.23-1.09,2.43,2.43,0,0,0-1.72,2.59q0,2.16.05,4.32.32,14.51.64,29a7.57,7.57,0,0,1-.5,1.77c-.79-.7-1.34-1.13-1.82-1.62q-7.34-7.59-14.67-15.19c-1.89-2-3.79-3.9-5.72-5.82a2.18,2.18,0,0,0-2.57-.77,2.26,2.26,0,0,0-1,2.9,9.62,9.62,0,0,0,1.83,3.3c2.69,3,5.52,5.78,8.31,8.64,3.07,3.15,6.18,6.26,9.23,9.43A18.22,18.22,0,0,1,222.78,186.46Z"/><path d="M222.78,186.46a18.22,18.22,0,0,0-1.59-2.21c-3.05-3.17-6.16-6.28-9.23-9.43-2.79-2.86-5.62-5.69-8.31-8.64a9.62,9.62,0,0,1-1.83-3.3,2.26,2.26,0,0,1,1-2.9,2.18,2.18,0,0,1,2.57.77c1.93,1.92,3.83,3.86,5.72,5.82q7.34,7.59,14.67,15.19c.48.5,1,.92,1.82,1.62a7.57,7.57,0,0,0,.5-1.77q-.29-14.51-.64-29,0-2.16-.05-4.32a2.43,2.43,0,0,1,1.72-2.59,3.24,3.24,0,0,1,3.23,1.09,6.28,6.28,0,0,1,1.12,4.08c0,3.76,0,7.52.06,11.28q.13,9.36.37,18.71a5.27,5.27,0,0,0,.67,1.67,5.46,5.46,0,0,0,1.58-.77c6.71-6.74,13.38-13.53,20.09-20.27a16.43,16.43,0,0,1,2.79-2.25,2.76,2.76,0,0,1,3.48.49,2.23,2.23,0,0,1-.42,3c-2.66,2.65-5.37,5.26-8.07,7.87q-4.92,4.75-9.85,9.47c-1.38,1.32-2.8,2.61-4.16,4-.58.58-1,1.28-1.87,2.33a18.24,18.24,0,0,0,2.35,0q11.91-1.94,23.8-3.92a11.13,11.13,0,0,1,1.19-.07c.93-.05,1.8.06,2.11,1.13a2.07,2.07,0,0,1-1,2.68,13.71,13.71,0,0,1-3.38,1.09c-5.64,1.05-11.29,2-16.93,3a26.35,26.35,0,0,1-4,.61c-3.43.07-6.06,1.73-8.32,4.07a4,4,0,0,0-1,2.28c-.15,1.59,0,3.2,0,4.8q.11,43.8.24,87.6c.06,14.72.26,29.44.32,44.16a5,5,0,0,0,2.46,4.76,7.69,7.69,0,0,1,2.7,3.54,30,30,0,0,1,2,7.12A117.25,117.25,0,0,1,242,363.8c.08,12.08-.14,24.15-.32,36.23a39.78,39.78,0,0,1-2,12.27,24.12,24.12,0,0,1-2.71,5.57c-2.09,3.12-5.29,3.94-8.86,3.57a5,5,0,0,1-3.82-2.64,31.28,31.28,0,0,1-2.63-5.36c-2-5.46-2.74-11.18-3.37-16.91-1.65-15.22-1.65-30.51-1.44-45.79a24.2,24.2,0,0,1,1.35-6.78,9.68,9.68,0,0,1,5.21-6c1.81-.85,2.32-2.08,2.33-4q.09-47.4.27-94.8.07-21,.19-42c0-3.35-1.51-5.25-4.79-6.09-5.94-1.52-11.87-3.11-17.81-4.63-1.93-.49-3.9-.8-5.82-1.33a7.3,7.3,0,0,1-2.77-1.31,2.53,2.53,0,0,1-.66-2.08c.09-.45,1-.83,1.63-1a3.78,3.78,0,0,1,1.65,0,92.48,92.48,0,0,1,16,3.87c2.83,1,5.79,1.58,8.69,2.35Z"/></svg>